<svg width="30" height="25" viewBox="0 0 30 25" fill="none" xmlns="http://www.w3.org/2000/svg">
<path d="M27.6562 3.95508H25.6055V20.3125C25.6055 21.5241 24.4226 22.5098 22.9688 22.5098H6.15234V24.2676C6.15234 24.6721 6.54586 25 7.03125 25H27.6562C28.1416 25 28.5352 24.6721 28.5352 24.2676V4.6875C28.5352 4.28301 28.1416 3.95508 27.6562 3.95508Z" fill="#808191"/>
<path d="M23.8477 20.3125V0.732422C23.8477 0.32793 23.4541 0 22.9688 0H2.34375C1.85836 0 1.46484 0.32793 1.46484 0.732422V20.3125C1.46484 20.717 1.85836 21.0449 2.34375 21.0449H22.9688C23.4541 21.0449 23.8477 20.717 23.8477 20.3125ZM5.21484 7.03125C5.21484 6.62676 5.60836 6.29883 6.09375 6.29883H10.7812C11.2666 6.29883 11.6602 6.62676 11.6602 7.03125V14.0625C11.6602 14.467 11.2666 14.7949 10.7812 14.7949H6.09375C5.60836 14.7949 5.21484 14.467 5.21484 14.0625V7.03125ZM19.2188 17.9199H6.09375C5.60836 17.9199 5.21484 17.592 5.21484 17.1875C5.21484 16.783 5.60836 16.4551 6.09375 16.4551H19.2188C19.7041 16.4551 20.0977 16.783 20.0977 17.1875C20.0977 17.592 19.7041 17.9199 19.2188 17.9199ZM19.2188 14.7949H14.5312C14.0459 14.7949 13.6523 14.467 13.6523 14.0625C13.6523 13.658 14.0459 13.3301 14.5312 13.3301H19.2188C19.7041 13.3301 20.0977 13.658 20.0977 14.0625C20.0977 14.467 19.7041 14.7949 19.2188 14.7949ZM19.2188 11.2793H14.5312C14.0459 11.2793 13.6523 10.9514 13.6523 10.5469C13.6523 10.1424 14.0459 9.81445 14.5312 9.81445H19.2188C19.7041 9.81445 20.0977 10.1424 20.0977 10.5469C20.0977 10.9514 19.7041 11.2793 19.2188 11.2793ZM19.2188 8.1543H14.5312C14.0459 8.1543 13.6523 7.82637 13.6523 7.42188C13.6523 7.01738 14.0459 6.68945 14.5312 6.68945H19.2188C19.7041 6.68945 20.0977 7.01738 20.0977 7.42188C20.0977 7.82637 19.7041 8.1543 19.2188 8.1543ZM19.2188 4.63867H6.09375C5.60836 4.63867 5.21484 4.31074 5.21484 3.90625C5.21484 3.50176 5.60836 3.17383 6.09375 3.17383H19.2188C19.7041 3.17383 20.0977 3.50176 20.0977 3.90625C20.0977 4.31074 19.7041 4.63867 19.2188 4.63867Z" fill="#808191"/>
<path d="M6.97266 7.76367H9.90234V13.3301H6.97266V7.76367Z" fill="#808191"/>
</svg>
