<svg width="30" height="28" viewBox="0 0 30 28" fill="none" xmlns="http://www.w3.org/2000/svg">
<path d="M7.96875 20.5625C8.45416 20.5625 8.84766 20.1952 8.84766 19.7422C8.84766 19.2891 8.45416 18.9219 7.96875 18.9219C7.48334 18.9219 7.08984 19.2891 7.08984 19.7422C7.08984 20.1952 7.48334 20.5625 7.96875 20.5625Z" fill="#808191"/>
<path d="M12.3633 9.58517V13.4929L16.5501 11.539L12.3633 9.58517Z" fill="#808191"/>
<path d="M27.3633 2.51562H2.63672C1.18277 2.51562 0 3.61955 0 4.97656V23.0234C0 24.3805 1.18277 25.4844 2.63672 25.4844H27.3633C28.8172 25.4844 30 24.3805 30 23.0234V4.97656C30 3.61955 28.8172 2.51562 27.3633 2.51562ZM10.6055 8.25781C10.6055 7.97344 10.7634 7.70984 11.0226 7.56005C11.2809 7.41027 11.6037 7.39823 11.8775 7.52402L18.9087 10.8053C19.2066 10.9447 19.3945 11.2282 19.3945 11.5391C19.3945 11.8499 19.2066 12.1335 18.9087 12.2729L11.8775 15.5541C11.6 15.6827 11.2769 15.6657 11.0226 15.5181C10.7634 15.3683 10.6055 15.1047 10.6055 14.8203V8.25781ZM25.5469 20.5625H10.4436C10.0795 21.5153 9.11309 22.2031 7.96875 22.2031C6.82441 22.2031 5.85797 21.5153 5.49393 20.5625H4.45312C3.96732 20.5625 3.57422 20.1956 3.57422 19.7422C3.57422 19.2888 3.96732 18.9219 4.45312 18.9219H5.49393C5.85797 17.9691 6.82441 17.2812 7.96875 17.2812C9.11309 17.2812 10.0795 17.9691 10.4436 18.9219H25.5469C26.0327 18.9219 26.4258 19.2888 26.4258 19.7422C26.4258 20.1956 26.0327 20.5625 25.5469 20.5625Z" fill="#808191"/>
</svg>
