<svg width="30" height="30" viewBox="0 0 30 30" fill="none" xmlns="http://www.w3.org/2000/svg">
<path d="M26.7432 21.1414C24.8534 19.5438 23.7696 17.2087 23.7696 14.735V11.25C23.7696 6.85135 20.5021 3.21007 16.2696 2.6001V1.24992C16.2696 0.558701 15.7095 0 15.0195 0C14.3296 0 13.7695 0.558701 13.7695 1.24992V2.6001C9.53568 3.21007 6.26953 6.85135 6.26953 11.25V14.735C6.26953 17.2087 5.18578 19.5438 3.28445 21.1512C2.79831 21.5675 2.51953 22.1725 2.51953 22.8124C2.51953 24.0189 3.50075 25.0001 4.70695 25.0001H25.332C26.5384 25.0001 27.5196 24.0189 27.5196 22.8124C27.5196 22.1725 27.2408 21.5675 26.7432 21.1414Z" fill="white"/>
<path d="M15.0195 30C17.2834 30 19.1772 28.3862 19.612 26.25H10.427C10.8621 28.3862 12.7559 30 15.0195 30Z" fill="white"/>
</svg>
