<svg width="30" height="25" viewBox="0 0 30 25" fill="none" xmlns="http://www.w3.org/2000/svg">
<g clip-path="url(#clip0)">
<path d="M29.1907 10.8738C29.19 10.8732 29.1893 10.8727 29.1886 10.8721L16.951 0.674438C16.4294 0.239563 15.7359 0 14.9982 0C14.2605 0 13.567 0.239372 13.0451 0.674248L0.813904 10.8667C0.809784 10.8702 0.805664 10.8738 0.801544 10.8772C-0.269623 11.775 -0.267791 13.2317 0.806809 14.1272C1.29776 14.5365 1.94618 14.7736 2.63947 14.7984C2.66762 14.8006 2.696 14.8018 2.72461 14.8018H3.21236V22.3066C3.21236 23.7917 4.66232 25 6.44485 25H11.2326C11.7178 25 12.1115 24.6721 12.1115 24.2676V18.3838C12.1115 17.7061 12.773 17.1549 13.5862 17.1549H16.4101C17.2234 17.1549 17.8848 17.7061 17.8848 18.3838V24.2676C17.8848 24.6721 18.2783 25 18.7637 25H23.5515C25.334 25 26.784 23.7917 26.784 22.3066V14.8018H27.2362C27.9737 14.8018 28.6672 14.5624 29.1893 14.1275C30.265 13.2305 30.2655 11.7714 29.1907 10.8738Z" fill="white"/>
</g>
<defs>
<clipPath id="clip0">
<rect width="30" height="25" fill="white"/>
</clipPath>
</defs>
</svg>
