<svg width="30" height="25" viewBox="0 0 30 25" fill="none" xmlns="http://www.w3.org/2000/svg">
<path d="M23.8477 0H6.15234C2.75994 0 0 2.29995 0 5.12695V19.873C0 22.7 2.75994 25 6.15234 25H23.8477C27.2401 25 30 22.7 30 19.873V5.12695C30 2.29995 27.2401 0 23.8477 0ZM22.4414 15.4297V16.1621V17.3828C22.4414 18.4598 21.39 19.3359 20.0977 19.3359H18.6328C17.3405 19.3359 16.2891 18.4598 16.2891 17.3828C16.2891 16.3059 17.3405 15.4297 18.6328 15.4297H20.6836V8.24253L12.2461 9.45483V16.8945V17.627V18.8477C12.2461 19.9246 11.1947 20.8008 9.90234 20.8008H8.4375C7.14516 20.8008 6.09375 19.9246 6.09375 18.8477C6.09375 17.7707 7.14516 16.8945 8.4375 16.8945H10.4883V5.77954L22.4414 4.06216V15.4297Z" fill="#808191"/>
</svg>
